<svg xmlns="http://www.w3.org/2000/svg" viewBox="0 0 369 205"><g fill="none" fill-rule="evenodd"><path fill="#5042C0" d="M36.5 201.6c-4.9 0-9.2-1-12.9-3.1a21 21 0 0 1-8.4-9c-2-4-3-8.6-3-14 0-5.2 1-9.8 3-13.7 2-4 4.8-7 8.4-9 3.7-2.2 8-3.2 12.9-3.2a25.8 25.8 0 0 1 16.3 5.4c.7.5 1.1 1 1.3 1.6.3.5.4 1.2.4 2a4 4 0 0 1-.9 2.6c-.5.7-1.2 1-2 1-1 0-2-.3-3-1a18.4 18.4 0 0 0-11.7-4.1c-5 0-8.7 1.6-11.3 4.7-2.6 3.2-3.9 7.7-3.9 13.8 0 6 1.3 10.7 3.9 13.8 2.6 3.1 6.3 4.7 11.3 4.7 2.1 0 4-.3 5.8-1 1.7-.6 3.7-1.6 5.9-3.1l1.4-.7a4 4 0 0 1 1.5-.3c.9 0 1.6.3 2.1 1a4.7 4.7 0 0 1 .5 4.6 4 4 0 0 1-1.3 1.6 26 26 0 0 1-16.3 5.4zm48 0a25 25 0 0 1-12.8-3.1 21.2 21.2 0 0 1-8.4-9c-2-4-3-8.6-3-14 0-5.2 1-9.8 3-13.7 2-4 4.7-7 8.4-9 3.6-2.2 8-3.2 12.9-3.2s9.2 1 12.8 3.2a21 21 0 0 1 8.4 9c1.9 4 2.9 8.5 2.9 13.8 0 5.3-1 9.9-3 13.8-2 4-4.7 7-8.4 9a25 25 0 0 1-12.7 3.2zm0-7.4c4.7 0 8.3-1.6 11-4.8 2.6-3.2 3.9-7.8 3.9-13.8 0-6-1.3-10.6-4-13.8a13.3 13.3 0 0 0-10.8-4.8c-4.8 0-8.4 1.6-11 4.8-2.6 3.2-4 7.8-4 13.8 0 6 1.4 10.6 4 13.8 2.6 3.2 6.2 4.8 11 4.8zm38.4 7.2c-1.4 0-2.5-.4-3.4-1.3-.8-.8-1.2-2-1.2-3.3v-42.3c0-1.4.4-2.5 1.2-3.4.9-.8 2-1.2 3.4-1.2s2.6.4 3.4 1.2a5 5 0 0 1 1.3 3.4v42.3c0 1.3-.5 2.5-1.3 3.3-.8.9-2 1.3-3.4 1.3zm54.3-51.5c1.3 0 2.4.4 3.2 1.2.8.9 1.2 2 1.2 3.4v42.3c0 1.3-.4 2.5-1.2 3.3a4 4 0 0 1-3.2 1.3c-1.5 0-2.7-.5-3.5-1.6l-26.3-34.2v31.2c0 1.3-.4 2.5-1.2 3.3a4 4 0 0 1-3.1 1.3 4 4 0 0 1-3.2-1.3c-.8-.8-1.1-2-1.1-3.3v-42.3c0-1.4.4-2.5 1.2-3.4.8-.8 1.9-1.2 3.2-1.2a4 4 0 0 1 3.5 1.6l26.2 34v-31c0-1.4.4-2.5 1.2-3.4.8-.8 1.8-1.2 3.1-1.2zm38.2 51.7c-5 0-9.2-1-12.9-3.1a21.2 21.2 0 0 1-8.4-9c-2-4-2.9-8.6-2.9-14 0-5.2 1-9.8 3-13.7 1.9-4 4.7-7 8.3-9 3.6-2.2 8-3.2 12.9-3.2 5 0 9.2 1 12.8 3.2a21 21 0 0 1 8.4 9c2 4 3 8.5 3 13.8 0 5.3-1 9.9-3 13.8-2 4-4.8 7-8.4 9a25 25 0 0 1-12.8 3.2zm0-7.4c4.6 0 8.3-1.6 10.9-4.8 2.6-3.2 4-7.8 4-13.8 0-6-1.4-10.6-4-13.8a13.3 13.3 0 0 0-11-4.8c-4.6 0-8.3 1.6-10.9 4.8-2.6 3.2-4 7.8-4 13.8 0 6 1.4 10.6 4 13.8 2.6 3.2 6.3 4.8 11 4.8zm38.1 6.8c-1.4 0-2.5-.4-3.2-1.2a4.3 4.3 0 0 1-1.2-3.1v-42.2c0-1.4.4-2.5 1.3-3.4.8-.8 2-1.2 3.3-1.2 1.5 0 2.6.4 3.4 1.2.9.9 1.3 2 1.3 3.4v38.9h20.2c3 0 4.4 1.2 4.4 3.8 0 2.5-1.5 3.8-4.4 3.8h-25.1zm40.4.4c-1.4 0-2.5-.4-3.3-1.3-.9-.8-1.3-2-1.3-3.3v-42.3c0-1.4.4-2.5 1.3-3.4.8-.8 2-1.2 3.3-1.2 1.5 0 2.6.4 3.4 1.2.9.9 1.3 2 1.3 3.4v42.3c0 1.3-.4 2.5-1.3 3.3-.8.9-2 1.3-3.4 1.3zm38.5.2c-5 0-9.2-1-12.9-3.1a21.2 21.2 0 0 1-8.3-9c-2-4-3-8.6-3-14 0-5.2 1-9.8 3-13.7 1.9-4 4.7-7 8.3-9 3.7-2.2 8-3.2 12.9-3.2 5 0 9.2 1 12.9 3.2a21 21 0 0 1 8.3 9c2 4 3 8.5 3 13.8 0 5.3-1 9.9-3 13.8-2 4-4.8 7-8.4 9a25 25 0 0 1-12.8 3.2zm0-7.4c4.7 0 8.3-1.6 11-4.8a22 22 0 0 0 3.8-13.8c0-6-1.3-10.6-3.9-13.8a13.3 13.3 0 0 0-10.9-4.8c-4.7 0-8.4 1.6-11 4.8a21.4 21.4 0 0 0-3.9 13.8c0 6 1.3 10.6 4 13.8a13 13 0 0 0 10.9 4.8z"/><g stroke="#5042C0" transform="translate(82 4)"><ellipse cx="18.3" cy="105.7" stroke-width="4" rx="18.3" ry="18.3"/><ellipse cx="145.2" cy="91.4" stroke-width="4" rx="18.3" ry="18.3"/><ellipse cx="87.1" cy="18.3" stroke-width="4" rx="18.3" ry="18.3"/><ellipse cx="187.7" cy="54.8" stroke-width="4" rx="18.3" ry="18.3"/><path stroke-linecap="square" stroke-width="5" d="M31.4 92.6l44.4-58.8m25.1-2.9l31.7 46m42.6-8.3l-13.8 12"/></g></g></svg>
